<?xml version="1.0" encoding="UTF-8"?><svg viewBox="0, 0, 16, 16" class=" fxs-portal-svg" role="presentation" focusable="false" xmlns:svg="http://www.w3.org/2000/svg" xmlns:xlink="http://www.w3.org/1999/xlink" aria-hidden="true"><g><path d="M5 7h10v1H5V7z" class="msportalfx-svg-c10"></path><path d="M5.5 9.429a1.93 1.93 0 1 1 0-3.859 1.93 1.93 0 0 1 0 3.859z" class="msportalfx-svg-c10"></path><path d="M6.407 3.091C8.189 3.623 8.961 4.34 9.659 6H8.594C8.122 4.665 6.798 4.131 5.5 4a3.5 3.5 0 1 0 0 7c1.344-.049 2.563-.738 3.094-2h1.065c-.599 1.933-2.254 2.808-4.159 3a4.5 4.5 0 0 1 0-9l.907.091z" class="msportalfx-svg-c04"></path></g></svg>