<!-- Generated by IcoMoon.io -->
<svg version="1.1" xmlns="http://www.w3.org/2000/svg" width="24" height="28" viewBox="0 0 24 28">
<title>expand</title>
<path d="M11.797 16.5c0 0.125-0.063 0.266-0.156 0.359l-5.187 5.187 2.25 2.25c0.187 0.187 0.297 0.438 0.297 0.703 0 0.547-0.453 1-1 1h-7c-0.547 0-1-0.453-1-1v-7c0-0.547 0.453-1 1-1 0.266 0 0.516 0.109 0.703 0.297l2.25 2.25 5.187-5.187c0.094-0.094 0.234-0.156 0.359-0.156s0.266 0.063 0.359 0.156l1.781 1.781c0.094 0.094 0.156 0.234 0.156 0.359zM24 3v7c0 0.547-0.453 1-1 1-0.266 0-0.516-0.109-0.703-0.297l-2.25-2.25-5.187 5.187c-0.094 0.094-0.234 0.156-0.359 0.156s-0.266-0.063-0.359-0.156l-1.781-1.781c-0.094-0.094-0.156-0.234-0.156-0.359s0.063-0.266 0.156-0.359l5.187-5.187-2.25-2.25c-0.187-0.187-0.297-0.438-0.297-0.703 0-0.547 0.453-1 1-1h7c0.547 0 1 0.453 1 1z"></path>
</svg>
